<svg xmlns="http://www.w3.org/2000/svg"  height="50" viewBox="0 0 26 26" enable-background="new 0 0 16 16" style="fill: rgb(231, 76, 60);">
    <path d="M 1 4 C 0.4 4 0 4.4 0 5 L 0 19 C 0 19.6 0.4 20 1 20 L 3 20 C 3.2 18.3 4.7 16.90625 6.5 16.90625 C 8.3 16.90625 9.8 18.3 10 20 L 14 20 C 14.6 20 15 19.6 15 19 L 15 5 C 15 4.4 14.6 4 14 4 L 1 4 z M 17 8 C 16.4 8 16 8.4 16 9 L 16 19 C 16 19.5 16.4 20 17 20 C 17.2 18.3 18.7 16.90625 20.5 16.90625 C 22.3 16.90625 23.8 18.2 24 20 L 25 20 C 25.6 20 26 19.6 26 19 L 26 14 C 26 13.1 25.1875 12 25.1875 12 L 23 9 C 22.5 8.4 22.2 8 21.5 8 L 17 8 z M 19 10 L 21.40625 10 C 21.60625 10 21.8125 10.1875 21.8125 10.1875 L 23.90625 13.09375 C 24.10625 13.39375 24.3125 13.7 24.3125 14 L 19 14 L 19 10 z M 6.5 18.1875 C 5.2297451 18.1875 4.1875 19.229745 4.1875 20.5 C 4.1875 21.770255 5.2297451 22.8125 6.5 22.8125 C 7.7702549 22.8125 8.8125 21.770255 8.8125 20.5 C 8.8125 19.229745 7.7702549 18.1875 6.5 18.1875 z M 20.5 18.1875 C 19.229745 18.1875 18.1875 19.229745 18.1875 20.5 C 18.1875 21.770255 19.229745 22.8125 20.5 22.8125 C 21.770255 22.8125 22.8125 21.770255 22.8125 20.5 C 22.8125 19.229745 21.770255 18.1875 20.5 18.1875 z"></path>
</svg>