<svg xmlns="http://www.w3.org/2000/svg" viewBox="0 0 26 26" style="fill: #4EC34E" height="40">
    <path d="M 8 5 C 7.449 5 6.90725 5.264 6.78125 5.625 C 6.78125 5.625 4.95475 8.019 4.21875 9 C 3.48275 9.981 3.4695 10 2.5625 10 L 1 10 C 0.449 10 0 10.449 0 11 L 0 16 C 0 16.551 0.449 17 1 17 L 3 17 C 3.245 15.277 4.71 13.9375 6.5 13.9375 C 8.29 13.9375 9.755 15.277 10 17 L 16 17 C 16.245 15.277 17.71 13.9375 19.5 13.9375 C 21.29 13.9375 22.755 15.277 23 17 L 25 17 C 25.551 17 26 16.551 26 16 L 26 14 C 26 13.007 24.973 10 21 10 C 20.109 10 20.11675 10.0095 19.21875 8.9375 C 18.40075 7.9625 16.53125 5.625 16.53125 5.625 C 16.23525 5.265 15.551 5 15 5 L 8 5 z M 8.34375 7 L 11 7 L 11 10 L 5.84375 10 L 7.90625 7.25 C 7.90625 7.25 8.21075 7 8.34375 7 z M 13 7 L 14.65625 7 C 14.95725 7 15.32425 7.18625 15.40625 7.28125 L 17.625 10 L 13 10 L 13 7 z M 6.5 15.1875 C 5.2231176 15.1875 4.1875 16.223118 4.1875 17.5 C 4.1875 18.776882 5.2231176 19.8125 6.5 19.8125 C 7.7768824 19.8125 8.8125 18.776882 8.8125 17.5 C 8.8125 16.223118 7.7768824 15.1875 6.5 15.1875 z M 19.5 15.1875 C 18.223118 15.1875 17.1875 16.223118 17.1875 17.5 C 17.1875 18.776882 18.223118 19.8125 19.5 19.8125 C 20.776882 19.8125 21.8125 18.776882 21.8125 17.5 C 21.8125 16.223118 20.776882 15.1875 19.5 15.1875 z"></path>
</svg>